# xmcd
#
# Track frame offsets:
#	150
#	15937
#	31288
#	45745
#	60936
#	77086
#	92643
#	109554
#	124766
#	140681
#	156126
#	172196
#	188575
#	204201
#	220817
#	234684
#	250642
#	267601
#	284083
#	299679
#	316515
#	331060
#
# Disc length: 4639 seconds
# Revision: 0
# Processed by: cddbd v1.5.2PL0 Copyright (c) Steve Scherf et al.
# Submitted via: dBpowerAMP V12.0
#
DISCID=34121d16
DTITLE=Wolfgang Petry - Ich will noch mehr (Ultimate Best Of) CD1
DYEAR=2008
DGENRE=Schlager
TTITLE0=Verlieben verloren vergessen verzeih'n
TTITLE1=Der Himmel brennt
TTITLE2=Bronze Silber und Gold
TTITLE3=Frei für dich
TTITLE4=Ich will noch mehr
TTITLE5=Du bist ein Wunder
TTITLE6=Auf den Mond schiessen (hinterherfliegen)
TTITLE7=Augen zu und durch
TTITLE8=Das darf doch nicht wahr sein
TTITLE9=Sieben Tage Sieben Nächte
TTITLE10=Hab' noch lange nicht genug
TTITLE11=Ganz oder gar nicht
TTITLE12=Wieso und weshalb
TTITLE13=Weiss' der Geier
TTITLE14=Scheissegal
TTITLE15=So ein Schwein
TTITLE16=Weiber
TTITLE17=Geil geil geil (Wir sind die Grössten)
TTITLE18=Sehnsucht nach dir
TTITLE19=Wahnsinn
TTITLE20=Millionär
TTITLE21=Der Wolfgang Petry Hitmix 1996
EXTD=
EXTT0=
EXTT1=
EXTT2=
EXTT3=
EXTT4=
EXTT5=
EXTT6=
EXTT7=
EXTT8=
EXTT9=
EXTT10=
EXTT11=
EXTT12=
EXTT13=
EXTT14=
EXTT15=
EXTT16=
EXTT17=
EXTT18=
EXTT19=
EXTT20=
EXTT21=
PLAYORDER=
